<?xml version="1.0" encoding="UTF-8"?>
<svg xmlns="http://www.w3.org/2000/svg" width="28" height="53" fill="none"><path fill="#60717A" d="M26.688 1.5c-.334 1.5-2.2 4.4-7 4 .666-2 3-5.6 7-4m-9.5 6.5c.833-.833 2.7-4 1.5-8-1.167 1-3.5 4.4-1.5 8m-1 1c.866-.8 4.051-2.859 8-1.5-1.046 1.126-4.483 3.643-8 1.5m-2.5 3c.833-.833 2.5-4 1.109-8-1.61 1-3.11 4.4-1.11 8m.001.5c.834-.832 3-2.5 7-1.5-1.003 1.606-4.5 3-7 1.5m-2.5 4c.558-1.037 2-6-1.5-8-1.253 1.422-2 5 1.5 8m0 .5c1.1.422 5.96 1.226 7.5-2.5-1.569-1.062-4.968-1.352-7.5 2.5"/><path fill="#60717A" d="M9.188 21.5c1.497.633 5.96.226 7.5-3.5-2.5-.5-4.968-.352-7.5 3.5"/><path fill="#60717A" d="M8.188 26.5c1.5 0 6.833-1.025 7.5-5-2.549.072-5.894.679-7.5 5"/><path fill="#60717A" d="M8.688 31c1.5 0 5.833-1.525 6.5-5.5-2.549.072-4.894 1.178-6.5 5.5"/><path fill="#60717A" d="M9.688 34.5c1.5 0 5.333-1.524 6-5.5-2.549.073-5 1.5-6 5.5"/><path fill="#60717A" d="M11.688 38c1.234 0 4-2.5 4-5.5-2.5 0-3.5 2-4 5.5"/><path fill="#60717A" d="M13.688 41c1.234 0 3.5-3 3.5-6-2.5 0-3 2.5-3.5 6m3.5 3.5c1.234 0 2.5-3.5 1.5-7-3.5 1.5-2 4.5-1.5 7m3.5 2.5c1.098 0 1.89-3.887 1-7-3.113 1.334-2 5-1 7"/><path fill="#60717A" d="m26.688 50.5.5-1c-4.5-1.5-13.17-4.932-17.5-16C5.188 22 15.02 9.667 20.188 5c-6 4.5-15 16.5-12 28 3.313 12.7 16 16.5 18.5 17.5"/><path fill="#60717A" d="M9.188 21.5c.558-1.038 1-6-2.5-8-1.253 1.42-1 5.5 2.5 8m-1 4.5c.558-1.038 0-6-4-7.5-1.253 1.421.5 7 4 7.5m0 5c.105-1.174-1.732-6.693-6-6.5-.593 1.8 2.652 6.3 6 6.5"/><path fill="#60717A" d="M8.688 34c-.36-1.123-3.748-5.206-7.604-3.366.154 1.888 4.442 4.485 7.604 3.365m1.5 4.001c-.36-1.122-5-5.5-8-2 2 2.5 4.838 3.12 8 2m3.5 4c-.36-1.122-5-4-8-1 2 2.5 5.5 3 8 1m3 2.957c-.5-.957-6-1.957-7.5 1.043 2.5 1 5.5 1.5 7.5-1.043m4.409 3.053c-.91-1.01-6.41-1.51-7.91 1.49 2.5 1 5.91 1.053 7.91-1.49"/></svg>